<svg id="svg" version="1.1" xmlns="http://www.w3.org/2000/svg" xmlns:xlink="http://www.w3.org/1999/xlink" width="400" height="400" viewBox="0, 0, 400,400">
	<g id="svgg">
		<path id="path0" d="M53.125 31.632 C 49.224 32.163,44.414 34.006,42.114 35.850 C 37.737 39.361,35.888 41.756,33.752 46.680 L 32.227 50.195 32.227 109.375 L 32.227 168.555 33.542 171.807 C 36.299 178.627,41.851 183.946,48.603 186.235 L 51.758 187.305 109.961 187.305 C 166.250 187.305,168.241 187.280,170.508 186.556 C 177.667 184.268,182.637 180.042,185.703 173.633 C 188.224 168.364,188.086 172.111,188.086 109.180 L 188.086 51.758 187.168 48.833 C 184.551 40.498,179.326 35.212,170.898 32.369 L 168.164 31.447 111.719 31.393 C 80.674 31.364,54.307 31.471,53.125 31.632 M211.719 200.391 C 211.719 302.640,211.860 369.531,212.077 369.531 C 212.274 369.531,212.493 369.369,212.565 369.171 C 212.637 368.972,213.415 368.045,214.294 367.111 C 220.312 360.714,226.953 346.250,226.953 339.541 C 226.953 338.516,227.167 338.416,230.026 338.104 C 236.815 337.363,244.326 331.453,248.275 323.743 C 249.636 321.086,249.548 320.879,246.387 319.288 C 235.417 313.768,228.477 303.898,227.127 291.895 L 226.852 289.453 252.293 289.453 L 277.734 289.453 277.734 275.781 L 277.734 262.109 265.625 262.109 L 253.516 262.109 253.446 260.645 C 253.335 258.319,253.534 256.139,254.059 253.906 C 254.185 253.369,254.368 252.490,254.465 251.953 C 258.227 231.087,276.918 220.512,291.146 231.199 C 298.426 236.667,300.817 253.036,295.426 260.506 L 294.751 261.443 296.692 261.152 C 315.431 258.349,331.648 244.311,334.997 227.995 C 335.092 227.530,335.299 226.533,335.456 225.781 C 336.720 219.740,335.398 205.465,333.057 199.861 C 332.729 199.078,332.529 198.438,332.612 198.438 C 333.141 198.438,328.471 190.014,326.581 187.558 C 304.178 158.456,267.221 166.662,248.334 204.932 C 245.061 211.564,241.180 222.478,240.088 228.125 C 239.984 228.662,239.630 230.420,239.301 232.031 C 238.972 233.643,238.624 235.488,238.528 236.133 C 238.432 236.777,238.150 238.535,237.900 240.039 C 237.098 244.875,236.865 247.139,236.533 253.320 C 236.429 255.254,236.235 258.022,236.101 259.473 L 235.858 262.109 228.846 262.109 L 221.834 262.109 222.051 258.887 C 222.170 257.114,222.354 253.119,222.460 250.007 C 222.983 234.653,226.233 214.996,229.898 205.021 C 230.241 204.086,230.680 202.705,230.872 201.953 C 231.065 201.201,232.294 197.510,233.603 193.750 C 234.913 189.990,236.254 186.035,236.584 184.961 C 236.913 183.887,237.424 182.480,237.718 181.836 C 238.013 181.191,238.759 179.258,239.375 177.539 C 243.565 165.864,246.102 159.034,247.067 156.836 C 247.350 156.191,247.942 154.483,248.383 153.040 C 248.824 151.597,249.444 149.916,249.761 149.304 C 250.295 148.271,252.873 138.835,253.356 136.148 C 254.683 128.762,254.833 117.469,253.702 110.156 C 253.586 109.404,253.425 108.350,253.344 107.813 C 253.057 105.906,251.168 97.049,250.761 95.703 C 250.534 94.951,250.285 94.072,250.208 93.750 C 250.131 93.428,249.529 91.712,248.871 89.938 C 248.212 88.164,247.647 86.582,247.615 86.423 C 247.268 84.698,245.020 79.442,241.895 73.047 C 236.573 62.155,230.232 52.351,222.925 43.717 C 222.455 43.162,221.455 41.943,220.703 41.008 C 219.951 40.073,218.923 38.858,218.419 38.307 C 217.915 37.756,216.334 35.942,214.907 34.277 C 213.481 32.612,212.179 31.250,212.016 31.250 C 211.852 31.250,211.719 107.363,211.719 200.391 M164.357 109.277 L 164.258 163.477 110.059 163.576 L 55.859 163.675 55.859 109.376 L 55.859 55.078 110.158 55.078 L 164.456 55.078 164.357 109.277 M83.367 80.066 C 82.151 80.558,80.530 82.668,80.272 84.094 C 79.547 88.103,80.275 135.493,81.079 136.569 C 83.236 139.457,81.076 139.246,109.696 139.361 C 138.373 139.477,136.997 139.602,138.965 136.719 L 139.844 135.431 139.844 109.493 C 139.844 80.869,139.949 82.103,137.366 80.506 C 135.958 79.636,85.447 79.224,83.367 80.066 M35.938 212.158 C 35.401 212.372,34.549 212.932,34.045 213.402 C 31.998 215.314,32.031 214.943,32.031 235.841 L 32.031 255.315 33.260 256.986 C 35.051 259.422,34.606 259.375,56.118 259.375 C 78.160 259.375,77.261 259.484,78.869 256.623 C 79.670 255.199,79.687 254.737,79.687 235.586 L 79.687 216.005 78.809 214.640 C 76.912 211.693,77.091 211.716,55.834 211.744 C 44.237 211.759,36.536 211.919,35.938 212.158 M156.035 212.258 C 152.431 213.858,152.275 214.658,152.421 230.734 C 152.585 248.793,151.205 247.412,169.266 247.585 C 189.296 247.776,188.389 248.675,188.204 228.790 C 188.033 210.597,189.429 211.950,170.703 211.822 C 160.059 211.749,156.976 211.841,156.035 212.258 M83.579 260.645 C 82.306 261.287,81.599 261.993,80.957 263.266 L 80.078 265.009 80.078 289.844 L 80.078 314.678 80.957 316.421 C 82.618 319.715,81.023 319.553,110.638 319.437 L 136.706 319.336 138.177 317.865 L 139.648 316.394 139.752 290.326 C 139.870 260.721,140.037 262.353,136.705 260.645 L 134.991 259.766 110.156 259.766 L 85.322 259.766 83.579 260.645 M143.898 320.483 C 143.228 320.775,142.173 321.677,141.554 322.488 L 140.430 323.962 140.321 343.421 C 140.200 365.269,140.161 364.941,143.100 366.758 C 145.094 367.990,183.408 368.046,185.420 366.819 C 188.097 365.187,188.086 365.281,188.086 343.750 L 188.086 324.414 187.168 322.937 C 185.259 319.866,185.669 319.920,164.176 319.937 C 149.004 319.949,144.869 320.061,143.898 320.483 M35.742 332.400 C 35.313 332.584,34.346 333.377,33.594 334.162 L 32.227 335.589 32.115 349.464 C 31.956 369.122,30.422 367.575,50.068 367.577 L 64.003 367.578 65.218 366.555 C 67.785 364.395,67.773 364.473,67.773 349.805 C 67.773 330.774,69.244 332.257,50.265 332.146 C 42.707 332.102,36.172 332.216,35.742 332.400 " stroke="none" fill="#ffffff" fill-rule="evenodd"></path>
		<path id="path1" d="M0.000 200.000 L 0.000 400.000 200.000 400.000 L 400.000 400.000 400.000 200.000 L 400.000 0.000 200.000 0.000 L 0.000 0.000 0.000 200.000 M170.898 32.369 C 179.326 35.212,184.551 40.498,187.168 48.833 L 188.086 51.758 188.086 109.180 C 188.086 172.111,188.224 168.364,185.703 173.633 C 182.637 180.042,177.667 184.268,170.508 186.556 C 168.241 187.280,166.250 187.305,109.961 187.305 L 51.758 187.305 48.603 186.235 C 41.851 183.946,36.299 178.627,33.542 171.807 L 32.227 168.555 32.227 109.375 L 32.227 50.195 33.752 46.680 C 35.888 41.756,37.737 39.361,42.114 35.850 C 44.414 34.006,49.224 32.163,53.125 31.632 C 54.307 31.471,80.674 31.364,111.719 31.393 L 168.164 31.447 170.898 32.369 M214.907 34.277 C 216.334 35.942,217.915 37.756,218.419 38.307 C 218.923 38.858,219.951 40.073,220.703 41.008 C 221.455 41.943,222.455 43.162,222.925 43.717 C 226.288 47.690,229.186 51.568,232.293 56.250 C 238.459 65.541,246.663 81.698,247.615 86.423 C 247.647 86.582,248.212 88.164,248.871 89.938 C 249.529 91.712,250.131 93.428,250.208 93.750 C 250.285 94.072,250.534 94.951,250.761 95.703 C 251.168 97.049,253.057 105.906,253.344 107.813 C 253.425 108.350,253.586 109.404,253.702 110.156 C 254.833 117.469,254.683 128.762,253.356 136.148 C 252.873 138.835,250.295 148.271,249.761 149.304 C 249.444 149.916,248.824 151.597,248.383 153.040 C 247.942 154.483,247.350 156.191,247.067 156.836 C 246.102 159.034,243.565 165.864,239.375 177.539 C 238.759 179.258,238.013 181.191,237.718 181.836 C 237.424 182.480,236.913 183.887,236.584 184.961 C 236.254 186.035,234.913 189.990,233.603 193.750 C 232.294 197.510,231.065 201.201,230.872 201.953 C 230.680 202.705,230.241 204.086,229.898 205.021 C 226.233 214.996,222.983 234.653,222.460 250.007 C 222.354 253.119,222.170 257.114,222.051 258.887 L 221.834 262.109 228.846 262.109 L 235.858 262.109 236.101 259.473 C 236.235 258.022,236.429 255.254,236.533 253.320 C 236.865 247.139,237.098 244.875,237.900 240.039 C 238.150 238.535,238.432 236.777,238.528 236.133 C 238.624 235.488,238.972 233.643,239.301 232.031 C 239.630 230.420,239.984 228.662,240.088 228.125 C 241.180 222.478,245.061 211.564,248.334 204.932 C 267.221 166.662,304.178 158.456,326.581 187.558 C 328.471 190.014,333.141 198.438,332.612 198.438 C 332.529 198.438,332.729 199.078,333.057 199.861 C 335.398 205.465,336.720 219.740,335.456 225.781 C 335.299 226.533,335.092 227.530,334.997 227.995 C 331.648 244.311,315.431 258.349,296.692 261.152 L 294.751 261.443 295.426 260.506 C 300.817 253.036,298.426 236.667,291.146 231.199 C 276.918 220.512,258.227 231.087,254.465 251.953 C 254.368 252.490,254.185 253.369,254.059 253.906 C 253.534 256.139,253.335 258.319,253.446 260.645 L 253.516 262.109 265.625 262.109 L 277.734 262.109 277.734 275.781 L 277.734 289.453 252.293 289.453 L 226.852 289.453 227.127 291.895 C 228.477 303.898,235.417 313.768,246.387 319.288 C 249.548 320.879,249.636 321.086,248.275 323.743 C 244.326 331.453,236.815 337.363,230.026 338.104 C 227.167 338.416,226.953 338.516,226.953 339.541 C 226.953 346.250,220.312 360.714,214.294 367.111 C 213.415 368.045,212.637 368.972,212.565 369.171 C 212.493 369.369,212.274 369.531,212.077 369.531 C 211.860 369.531,211.719 302.640,211.719 200.391 C 211.719 107.363,211.852 31.250,212.016 31.250 C 212.179 31.250,213.481 32.612,214.907 34.277 M55.859 109.376 L 55.859 163.675 110.059 163.576 L 164.258 163.477 164.357 109.277 L 164.456 55.078 110.158 55.078 L 55.859 55.078 55.859 109.376 M137.366 80.506 C 139.949 82.103,139.844 80.869,139.844 109.493 L 139.844 135.431 138.965 136.719 C 136.997 139.602,138.373 139.477,109.696 139.361 C 81.076 139.246,83.236 139.457,81.079 136.569 C 80.275 135.493,79.547 88.103,80.272 84.094 C 80.530 82.668,82.151 80.558,83.367 80.066 C 85.447 79.224,135.958 79.636,137.366 80.506 M76.342 212.497 C 77.215 212.924,78.325 213.889,78.809 214.640 L 79.687 216.005 79.687 235.586 C 79.687 254.737,79.670 255.199,78.869 256.623 C 77.261 259.484,78.160 259.375,56.118 259.375 C 34.606 259.375,35.051 259.422,33.260 256.986 L 32.031 255.315 32.031 235.841 C 32.031 214.943,31.998 215.314,34.045 213.402 C 35.743 211.817,36.376 211.769,55.834 211.744 C 73.961 211.720,74.820 211.751,76.342 212.497 M185.455 212.824 C 188.041 214.668,188.073 214.855,188.204 228.790 C 188.389 248.675,189.296 247.776,169.266 247.585 C 151.205 247.412,152.585 248.793,152.421 230.734 C 152.236 210.363,150.957 211.686,170.703 211.822 C 184.118 211.914,184.185 211.918,185.455 212.824 M136.705 260.645 C 140.037 262.353,139.870 260.721,139.752 290.326 L 139.648 316.394 138.177 317.865 L 136.706 319.336 110.638 319.437 C 81.023 319.553,82.618 319.715,80.957 316.421 L 80.078 314.678 80.078 289.844 L 80.078 265.009 80.957 263.266 C 81.599 261.993,82.306 261.287,83.579 260.645 L 85.322 259.766 110.156 259.766 L 134.991 259.766 136.705 260.645 M184.742 320.691 C 185.571 321.114,186.663 322.125,187.168 322.937 L 188.086 324.414 188.086 343.750 C 188.086 365.281,188.097 365.187,185.420 366.819 C 183.408 368.046,145.094 367.990,143.100 366.758 C 140.161 364.941,140.200 365.269,140.321 343.421 L 140.430 323.962 141.554 322.488 C 143.526 319.903,143.072 319.954,164.176 319.937 C 182.380 319.923,183.302 319.956,184.742 320.691 M65.109 333.049 C 67.760 335.026,67.773 335.109,67.773 349.805 C 67.773 364.473,67.785 364.395,65.218 366.555 L 64.003 367.578 50.068 367.577 C 30.422 367.575,31.956 369.122,32.115 349.464 L 32.227 335.589 33.594 334.162 C 35.627 332.039,35.458 332.060,50.265 332.146 C 63.560 332.224,64.042 332.253,65.109 333.049 " stroke="none" fill="#304871" fill-rule="evenodd"></path>
	</g>
</svg>