<?xml version="1.0" standalone="no"?>
<!DOCTYPE svg PUBLIC "-//W3C//DTD SVG 20010904//EN"
 "http://www.w3.org/TR/2001/REC-SVG-20010904/DTD/svg10.dtd">
<svg version="1.0" xmlns="http://www.w3.org/2000/svg"
 width="1024.000000pt" height="1024.000000pt" viewBox="0 0 1024.000000 1024.000000"
 preserveAspectRatio="xMidYMid meet">
<metadata>
Created by potrace 1.14, written by Peter Selinger 2001-2017
</metadata>
<g transform="translate(0.000000,1024.000000) scale(0.100000,-0.100000)"
fill="#000000" stroke="none">
<path d="M0 5120 l0 -5120 5120 0 5120 0 0 5120 0 5120 -5120 0 -5120 0 0
-5120z m4820 3776 c173 -57 296 -171 359 -333 l26 -68 3 -1299 c3 -1417 5
-1345 -55 -1472 -32 -69 -157 -201 -218 -231 -22 -11 -68 -30 -103 -42 l-62
-21 -1308 0 -1307 0 -67 24 c-96 34 -155 71 -220 139 -62 63 -110 149 -133
237 -22 83 -22 2598 0 2683 55 211 226 364 444 396 31 5 625 8 1321 7 1198 -1
1268 -2 1320 -20z m995 -48 c33 -39 67 -78 76 -87 87 -89 323 -413 416 -571
273 -464 420 -1016 383 -1442 -15 -182 -33 -265 -90 -438 -28 -85 -89 -253
-100 -275 -5 -11 -27 -69 -48 -130 -22 -60 -66 -184 -100 -275 -105 -286 -139
-383 -161 -460 -12 -41 -29 -91 -37 -110 -29 -71 -113 -430 -133 -570 -30
-208 -37 -287 -47 -558 l-7 -182 156 0 155 0 6 62 c4 35 9 97 11 138 9 136 15
189 40 351 63 411 226 815 430 1064 251 308 605 485 892 448 175 -23 325 -89
472 -208 181 -147 286 -308 352 -540 33 -116 34 -126 34 -305 0 -165 -2 -193
-24 -265 -51 -175 -109 -279 -219 -396 -90 -95 -174 -156 -307 -220 -89 -43
-299 -109 -348 -109 -17 0 -17 2 1 28 49 68 71 243 48 371 -37 206 -142 317
-336 357 -311 63 -556 -163 -645 -593 -8 -40 -15 -97 -15 -128 l0 -55 275 0
275 0 0 -305 0 -305 -570 0 c-555 0 -570 -1 -570 -19 0 -77 46 -234 95 -326
65 -122 199 -248 339 -320 32 -16 60 -35 63 -41 6 -16 -51 -120 -100 -182 -88
-110 -209 -184 -323 -197 -68 -8 -74 -11 -74 -31 0 -55 -66 -271 -109 -359
-48 -96 -150 -244 -205 -294 l-26 -24 0 3786 c0 2083 3 3787 8 3786 4 0 34
-32 67 -71z m-3075 -4003 c16 -16 35 -46 41 -67 6 -24 9 -193 7 -457 -3 -406
-4 -420 -24 -448 -46 -63 -46 -63 -512 -63 -470 0 -472 0 -512 65 -19 31 -20
49 -20 469 0 482 -1 477 63 517 31 18 49 19 479 17 l447 -3 31 -30z m2399 17
c19 -10 43 -34 53 -53 17 -31 18 -58 16 -339 l-3 -305 -25 -33 c-14 -18 -39
-37 -60 -43 -22 -6 -146 -9 -332 -7 l-298 3 -37 38 -38 37 0 320 0 319 30 31
c17 18 39 36 50 40 11 5 153 9 315 9 268 1 299 -1 329 -17z m-1069 -1078 c62
-37 60 -15 60 -649 0 -516 -2 -580 -16 -605 -37 -62 -15 -60 -649 -60 -635 0
-617 -2 -652 63 -17 30 -18 76 -18 602 l0 570 22 36 c13 20 33 41 45 47 16 7
205 11 601 11 519 1 582 -1 607 -15z m1097 -1367 l38 -37 3 -443 c2 -406 1
-445 -15 -477 -36 -71 -34 -71 -530 -68 l-443 3 -37 38 -38 37 -3 443 c-2 427
-2 443 18 475 11 18 34 41 52 52 32 20 48 20 475 18 l443 -3 37 -38z m-2716
-250 c66 -44 69 -59 69 -375 0 -306 -3 -324 -55 -372 l-27 -25 -303 -3 c-339
-3 -358 0 -395 60 -19 31 -20 50 -20 337 0 430 -29 400 401 401 291 0 297 0
330 -23z"/>
<path d="M2250 7175 l0 -1215 1215 0 1215 0 -2 1213 -3 1212 -1212 3 -1213 2
0 -1215z m1810 650 c15 -8 38 -27 49 -41 21 -26 21 -34 21 -615 l0 -587 -25
-30 c-13 -16 -37 -35 -52 -41 -21 -8 -186 -11 -605 -9 l-577 3 -31 30 c-16 16
-35 46 -41 67 -6 24 -9 236 -7 591 3 527 4 553 22 584 39 64 23 63 649 63 482
0 572 -2 597 -15z"/>
</g>
</svg>
